<?xml version="1.0" encoding="UTF-8" standalone="no"?>
<svg
   xmlns:dc="http://purl.org/dc/elements/1.1/"
   xmlns:cc="http://creativecommons.org/ns#"
   xmlns:rdf="http://www.w3.org/1999/02/22-rdf-syntax-ns#"
   xmlns:svg="http://www.w3.org/2000/svg"
   xmlns="http://www.w3.org/2000/svg"
   xmlns:xlink="http://www.w3.org/1999/xlink"
   xmlns:sodipodi="http://sodipodi.sourceforge.net/DTD/sodipodi-0.dtd"
   xmlns:inkscape="http://www.inkscape.org/namespaces/inkscape"
   width="82"
   height="58"
   viewBox="0 0 82 58"
   version="1.1"
   id="svg11"
   sodipodi:docname="grind-icon-espresso-2.svg"
   inkscape:version="0.92.4 (33fec40, 2019-01-16)">
  <metadata
     id="metadata15">
    <rdf:RDF>
      <cc:Work
         rdf:about="">
        <dc:format>image/svg+xml</dc:format>
        <dc:type
           rdf:resource="http://purl.org/dc/dcmitype/StillImage" />
        <dc:title></dc:title>
      </cc:Work>
    </rdf:RDF>
  </metadata>
  <sodipodi:namedview
     pagecolor="#ffffff"
     bordercolor="#666666"
     borderopacity="1"
     objecttolerance="10"
     gridtolerance="10"
     guidetolerance="10"
     inkscape:pageopacity="0"
     inkscape:pageshadow="2"
     inkscape:window-width="1263"
     inkscape:window-height="660"
     id="namedview13"
     showgrid="false"
     inkscape:zoom="4.402439"
     inkscape:cx="41"
     inkscape:cy="17.5"
     inkscape:window-x="2091"
     inkscape:window-y="168"
     inkscape:window-maximized="0"
     inkscape:current-layer="svg11" />
  <defs
     id="defs3">
    <path
       id="zq7ma"
       d="m 1239.584,638.483 c 0,0 -3.12,2.959 -3.12,4.672 a 3.127,3.127 0 0 0 3.12,3.114 3.127,3.127 0 0 0 3.12,-3.114 c 0,-1.713 -3.12,-4.672 -3.12,-4.672 z m 10.92,-14.757 -1.912,3.856 h -17.979 l -1.912,-3.856 v -8.602 h 21.841 v 8.602 z m -11.507,8.528 -0.352,-1.557 h 1.831 l -0.352,1.557 z m -19.694,-14.016 h 6.24 v 3.115 h -6.24 z m 32.762,-6.229 h -24.962 c -0.858,0 -1.56,0.701 -1.56,1.558 v 1.557 h -6.942 a 3.23,3.23 0 0 0 -2.808,-1.13 l -8.543,1.479 a 3.59,3.59 0 0 1 -0.896,0 l -5.772,-0.975 c -8.425,-1.324 -16.968,-1.246 -24.728,0.39 l -0.858,0.155 c -1.441,0.274 -2.496,1.557 -2.496,3.037 v 3.815 c 0,1.48 1.052,2.762 2.496,3.037 l 0.74,0.155 a 70.428,70.428 0 0 0 24.727,0.39 l 5.85,-0.975 a 3.59,3.59 0 0 1 0.896,0 l 8.502,1.05 c 1.133,0.155 2.147,-0.312 2.809,-1.131 h 6.983 c 0.037,0.118 0.078,0.233 0.118,0.311 l 2.537,5.024 a 1.55,1.55 0 0 0 1.404,0.856 h 5.813 l 0.78,3.386 c 0.118,0.741 0.78,1.286 1.523,1.286 h 3.588 a 1.52,1.52 0 0 0 1.522,-1.286 l 0.78,-3.386 h 5.813 c 0.587,0 1.133,-0.351 1.404,-0.856 l 2.537,-5.024 c 0.119,-0.233 0.156,-0.467 0.156,-0.7 v -10.475 c 0.156,-0.856 -0.546,-1.557 -1.404,-1.557 z"
       inkscape:connector-curvature="0" />
  </defs>
  <g
     id="g9"
     transform="translate(0,14.141274)">
    <g
       transform="translate(-1172,-612)"
       id="g7">
      <use
         xlink:href="#zq7ma"
         id="use5"
         x="0"
         y="0"
         width="100%"
         height="100%" />
    </g>
  </g>
  <rect
     style="opacity:1;fill:none;fill-opacity:1;fill-rule:evenodd;stroke:none;stroke-width:7.55905533;stroke-miterlimit:4;stroke-dasharray:none;stroke-opacity:1"
     id="rect4529"
     width="81.545708"
     height="57.69529"
     x="0"
     y="0.077562325" />
</svg>
