<?xml version="1.0" encoding="UTF-8" standalone="no"?>
<svg
   xmlns:dc="http://purl.org/dc/elements/1.1/"
   xmlns:cc="http://creativecommons.org/ns#"
   xmlns:rdf="http://www.w3.org/1999/02/22-rdf-syntax-ns#"
   xmlns:svg="http://www.w3.org/2000/svg"
   xmlns="http://www.w3.org/2000/svg"
   xmlns:xlink="http://www.w3.org/1999/xlink"
   xmlns:sodipodi="http://sodipodi.sourceforge.net/DTD/sodipodi-0.dtd"
   xmlns:inkscape="http://www.inkscape.org/namespaces/inkscape"
   width="32"
   height="23"
   viewBox="0 0 32 23"
   version="1.1"
   id="svg4599"
   sodipodi:docname="grind-icon-grain.svg"
   inkscape:version="0.92.4 (33fec40, 2019-01-16)">
  <metadata
     id="metadata4603">
    <rdf:RDF>
      <cc:Work
         rdf:about="">
        <dc:format>image/svg+xml</dc:format>
        <dc:type
           rdf:resource="http://purl.org/dc/dcmitype/StillImage" />
      </cc:Work>
    </rdf:RDF>
  </metadata>
  <sodipodi:namedview
     pagecolor="#ffffff"
     bordercolor="#666666"
     borderopacity="1"
     objecttolerance="10"
     gridtolerance="10"
     guidetolerance="10"
     inkscape:pageopacity="0"
     inkscape:pageshadow="2"
     inkscape:window-width="1920"
     inkscape:window-height="1011"
     id="namedview4601"
     showgrid="false"
     inkscape:zoom="10.26087"
     inkscape:cx="16"
     inkscape:cy="11.5"
     inkscape:window-x="1920"
     inkscape:window-y="0"
     inkscape:window-maximized="1"
     inkscape:current-layer="svg4599" />
  <defs
     id="defs4591">
    <path
       id="iqmba"
       d="M926.212 454.304c-2.536 3.263-5.79-1.066-8.294 2.69-.559-1.79.771-3.844 3.004-4.662 2.295-.833 4.7-.044 5.392 1.76zm-7.616 3.538c2.109-3.547 5.18 1.068 8.322-2.699.56 1.796-.772 3.85-3.007 4.672-2.298.834-4.706.043-5.399-1.767l.084-.207zm-16.84 11.584c4.114-.557 3.372 4.794 7.812 3.862-.869 1.663-3.268 2.201-5.437 1.229-2.222-1.007-3.381-3.243-2.595-5.013l.22-.077zm7.925 2.792c-4.006 1.053-2.933-4.366-7.827-3.874.868-1.663 3.267-2.2 5.436-1.227 2.227 1.005 3.38 3.24 2.594 5.01zm-13.26-8.761c1.459-3.86 5.85-.669 7.132-4.99 1.064 1.549.401 3.901-1.491 5.332-1.95 1.465-4.482 1.412-5.678-.112zm25.967 2.366c.42 4.097-4.803 2.193-5.082 7.073-1.52-1.115-1.677-3.553-.37-5.53 1.352-2.026 3.757-2.807 5.397-1.76zm-12.757-7.568c3.883 1.454.657 5.798 5.008 7.08-1.562 1.05-3.93.387-5.37-1.492-1.47-1.934-1.41-4.444.129-5.626zm5.622 6.19c-4.025-.966-.48-5.217-5.018-7.099 1.564-1.05 3.93-.386 5.37 1.493 1.471 1.934 1.413 4.444-.129 5.626zm-12.597-6.583c-.966 3.997-5.26.488-7.15 4.995-1.062-1.548-.4-3.898 1.492-5.331 1.95-1.467 4.482-1.412 5.678.113l-.02.222zm15.714 15.288zm0 0c.09-4.117 5.297-2.55 5.07-7.048 1.517 1.112 1.676 3.548.367 5.52-1.35 2.023-3.757 2.803-5.395 1.759z" />
  </defs>
  <g
     id="g4597"
     style="fill:#000000">
    <g
       transform="translate(-895 -452)"
       id="g4595"
       style="fill:#000000">
      <use
         fill="#fff"
         xlink:href="#iqmba"
         id="use4593"
         style="fill:#000000" />
    </g>
  </g>
</svg>
