<svg xmlns="http://www.w3.org/2000/svg" xmlns:xlink="http://www.w3.org/1999/xlink" width="33" height="56" viewBox="0 0 33 56"><defs><path id="8lpha" d="M485 619h-9v6.25l2.524.626c.326.076.65.076.976 0l1-.25c1.274-.3 2.5.65 2.5 1.95V640c0 .55-.45 1-1 1h-14c-.55 0-1-.45-1-1v-13.45c0-.926.624-1.724 1.524-1.95l2.05-.5c.326-.076.652-.076.976 0l2.45.626V619h-9v24h20zm-25 15.85c0 1.9 1.274 3.5 3 4v-19.676a4.14 4.14 0 0 0-3 3.976zM486 617c.55 0 1 .45 1 1v25c0 1.1-.9 2-2 2v.8c0 1.076-1.374 1.6-2.2.85L481 645h-12l-1.8 1.65c-.8.75-2.2.2-2.2-.85v-.8c-1.1 0-2-.9-2-2v-2.1c-2.85-.55-5-3.05-5-6.05v-11.7c0-3.324 2.65-6.05 5.95-6.15H486zm3.9-5.5c.526 0 .8.7.45 1.15l-3.326 3.676a.525.525 0 0 1-.424.2h-22.474A1.12 1.12 0 0 1 463 615.4v-2.774c0-.626.5-1.126 1.126-1.126zm-24.8-2.5h19.8c-.226-1.174-1.1-2.924-4.476-4.074-2.5-.852-5.076-.926-5.4-.926-.324 0-2.926.15-5.45 1.05-3.324 1.176-4.224 2.824-4.474 3.95zm-2.1 1c0-6.274 8.124-7.648 11-7.924v-6.25c.324.102.65.176 1 .176s.674-.076 1-.176v6.224c2.874.2 11 1.376 11 7.95 0 .55-.45 1-1 1h-22c-.55 0-1-.45-1-1zm11-17c0 .55.45 1 1 1s1-.45 1-1-.45-1-1-1-1 .45-1 1zm-1 0c0-1.1.9-2 2-2s2 .9 2 2-.9 2-2 2-2-.9-2-2z"/></defs><g><g transform="translate(-458 -591)"><use xlink:href="#8lpha"/></g></g></svg>