<svg xmlns="http://www.w3.org/2000/svg" xmlns:xlink="http://www.w3.org/1999/xlink" width="50" height="56" viewBox="0 0 50 56"><defs><path id="udfba" d="M992.405 602.576l-3.355-1.05c-.1-.026-.2-.05-.3-.05h-2.002c-.525 0-.952.4-1.002.9l-.925 9.3 5.884-7.376a.946.946 0 0 1 .576-.45l1.128-.35c.476-.1.476-.776 0-.926zm-42.11 1.948c.25-.3.7-.324 1.2-.2l5.226 2.699-.6-6.072c-.074-.4-.376-.7-.75-.7h-2.126c-.126 0-.3.1-.426.05l-2.2-.875c-.376-.15-.776-.05-1.074.224l-6.05 5.897c-.25.3-.25.8-.224 1.126l7.45 16.693c.15.35.526.626 1.026.626h3.5c.476-.05 1.05-.424 1-1v-1.25c-.024-.399-.5-.825-.876-.949l-1.676-.55c-.4-.125-.676-.523-.676-.95v-1.948c0-.2-.05-.4-.176-.55l-1.7-2.549c-.1-.15-.176-.35-.176-.524l.026-3.474c0-.15-.1-.324-.176-.5l-1.574-3.249c-.074-.45.05-.774.25-1l.8-.975zm22.7-8.522l.5-3.026-2.5-.976-2.5 1 .476 3zm4.5 49.874l-2-17.876h2.674l.976.976 3.4 17.024h-5.05v-.124zm-14.676-16.898l.976-.976h2.876l-2.176 18h-5.074l3.4-17.024zm11.676-.952l2 17.976h-11l2.176-17.976v-.024l6.824.024c0-.024 0-.024 0 0zm-12.5-3.024v-3h18v3zm-.524-6l-.6-.3-1.726-17.2 5.35-1.324 2 18.824zm11.3-20l3.726.926v.026l-2 19v.05h-7v-.05l-2-19v-.026l3.726-.926zm8.342 19.7l-.599.3h-5.017l1.973-18.824 5.343 1.324-1.698 17.2zm-.042 9.6c-.05-.2-.126-.376-.274-.5l-1.774-1.774H980c.55 0 1-.45 1-1v-3c0-.55-.45-1-1-1h.774c.15 0 .3-.024.45-.1l1.3-.65a.99.99 0 0 0 .55-.8l1.85-18.6c.05-.5-.274-.95-.75-1.074l-11.024-2.75c-.076-.026-.15-.026-.25-.026h-3.774c-.074 0-.176 0-.25.026l-11.024 2.75c-.476.126-.8.574-.75 1.074l1.85 18.6c.024.35.25.65.55.8l1.3.65c.15.076.3.1.45.1h.75c-.55 0-1 .45-1 1v3c0 .55.45 1 1 1h.976l-1.774 1.774a1.09 1.09 0 0 0-.274.5l-3.7 18.5a.999.999 0 0 0 .976 1.2h25.6a1 1 0 0 0 .976-1.2l-3.7-18.5z"/></defs><g><g transform="translate(-943 -592)"><use xlink:href="#udfba"/></g></g></svg>